<svg id="visual" viewBox="0 0 1980 1280" width="1980" height="1280" xmlns="http://www.w3.org/2000/svg" xmlns:xlink="http://www.w3.org/1999/xlink" version="1.1"><rect x="0" y="0" width="1980" height="1280" fill="#222222"></rect><defs><linearGradient id="grad1_0" x1="35.4%" y1="0%" x2="100%" y2="100%"><stop offset="19.0625%" stop-color="#4f358b" stop-opacity="1"></stop><stop offset="80.9375%" stop-color="#4f358b" stop-opacity="1"></stop></linearGradient></defs><defs><linearGradient id="grad1_1" x1="35.4%" y1="0%" x2="100%" y2="100%"><stop offset="19.0625%" stop-color="#4f358b" stop-opacity="1"></stop><stop offset="80.9375%" stop-color="#222222" stop-opacity="1"></stop></linearGradient></defs><defs><linearGradient id="grad2_0" x1="0%" y1="0%" x2="64.6%" y2="100%"><stop offset="19.0625%" stop-color="#4f358b" stop-opacity="1"></stop><stop offset="80.9375%" stop-color="#4f358b" stop-opacity="1"></stop></linearGradient></defs><defs><linearGradient id="grad2_1" x1="0%" y1="0%" x2="64.6%" y2="100%"><stop offset="19.0625%" stop-color="#222222" stop-opacity="1"></stop><stop offset="80.9375%" stop-color="#4f358b" stop-opacity="1"></stop></linearGradient></defs><g transform="translate(1980, 0)"><path d="M0 530.5C-48.8 476.8 -97.6 423.2 -168.4 406.5C-239.2 389.8 -331.9 410.1 -375.1 375.1C-418.3 340.1 -412 249.7 -429.6 177.9C-447.2 106.2 -488.9 53.1 -530.5 0L0 0Z" fill="#3a2c54"></path><path d="M0 265.2C-24.4 238.4 -48.8 211.6 -84.2 203.3C-119.6 194.9 -166 205.1 -187.6 187.6C-209.2 170 -206 124.8 -214.8 89C-223.6 53.1 -244.4 26.6 -265.2 0L0 0Z" fill="#4f358b"></path></g><g transform="translate(0, 1280)"><path d="M0 -530.5C56.5 -499.3 112.9 -468.1 186.4 -449.9C259.8 -431.8 350.3 -426.7 375.1 -375.1C400 -323.5 359.2 -225.3 374.2 -155C389.1 -84.7 459.8 -42.4 530.5 0L0 0Z" fill="#3a2c54"></path><path d="M0 -265.2C28.2 -249.6 56.5 -234 93.2 -225C129.9 -215.9 175.1 -213.4 187.6 -187.6C200 -161.7 179.6 -112.6 187.1 -77.5C194.6 -42.4 229.9 -21.2 265.2 0L0 0Z" fill="#4f358b"></path></g></svg>